<svg width="531" height="344" viewBox="0 0 531 344" fill="none" xmlns="http://www.w3.org/2000/svg">
<rect x="530.5" y="344.001" width="529.998" height="360.056" transform="rotate(-180 530.5 344.001)" fill="#282AE6"/>
<g opacity="0.78">
<mask id="mask0_31_26" style="mask-type:luminance" maskUnits="userSpaceOnUse" x="0" y="-17" width="531" height="361">
<path d="M530.498 -16.0557H0.5V344H530.498V-16.0557Z" fill="white"/>
</mask>
<g mask="url(#mask0_31_26)">
<g filter="url(#filter0_f_31_26)">
<path d="M322.548 -0.853516H134.104V159.171H322.548V-0.853516Z" fill="#2F95FC"/>
<path d="M408.306 149.97H240.105V313.595H408.306V149.97Z" fill="#FBC16B"/>
<path d="M561.416 52.3545H372.604V236.383H561.416V52.3545Z" fill="#62B0FF"/>
<path d="M517.985 16.3486H334.326V149.969H517.985V16.3486Z" fill="#8E47FF"/>
</g>
</g>
</g>
<g style="mix-blend-mode:soft-light" opacity="0.48">
<path d="M430.144 206.188C422.139 207.939 375.196 223.237 371.271 234.599L256.198 345.786H530.465V251.72C477.177 237.71 450.659 227.452 430.144 206.188Z" fill="url(#paint0_linear_31_26)"/>
<path d="M508.198 206.188L508.173 206.196C490.986 211.869 456.795 223.156 450.794 222.755C459.022 227.833 464.512 230.527 472.2 233.459C482.13 234.289 500.591 233.454 504.651 231.108C508.111 229.109 505.567 228.198 501.758 226.833C499.057 225.866 495.72 224.671 493.437 222.699C489.067 218.925 501.421 210.239 508.292 206.277C508.261 206.245 508.229 206.215 508.198 206.188Z" fill="url(#paint1_linear_31_26)"/>
<path d="M530.429 214.193C524.225 214.593 512.666 208.856 508.163 206.188C501.325 210.107 488.75 218.896 493.153 222.699C498.657 227.452 510.28 227.691 504.367 231.108C500.303 233.457 481.811 234.291 471.888 233.457C481.144 237.46 512.416 247.967 530.429 251.72V214.193Z" fill="url(#paint2_linear_31_26)"/>
<path d="M430.144 206.188C430.144 206.188 351.231 221.584 319.003 242.863C286.774 264.142 265.082 273.584 235.126 278.81C205.17 284.037 129.557 345.747 129.557 345.747C137.226 345.472 307.969 345.305 305.987 345.747C383.253 328.806 415.516 290.085 437.649 283.992C482.181 271.734 432.896 254.471 407.378 249.968C381.86 245.465 380.981 237.079 389.657 229.641C394.715 225.306 413.633 213.693 430.144 206.188Z" fill="url(#paint3_linear_31_26)"/>
<path d="M431.109 207.176C451.493 227.774 478.009 237.929 530.464 251.72V345.785H256.197L256.509 345.482C284.96 345.507 306.698 345.587 305.986 345.746C383.252 328.805 415.515 290.085 437.648 283.992C482.18 271.734 432.895 254.471 407.377 249.968C381.859 245.465 380.979 237.078 389.656 229.641C394.556 225.441 412.463 214.411 428.589 206.902L430.144 206.188L431.109 207.176Z" fill="url(#paint4_linear_31_26)"/>
<path d="M301.44 317.237C280.368 329.633 254.75 345.786 254.75 345.786H530.463C530.546 329.358 530.463 292.407 530.463 292.407C530.463 292.407 520.925 290.143 497.94 283.742C483.991 279.858 463.63 273.092 451.526 266.055C458.724 271.97 457.65 278.486 437.647 283.993C409.515 291.737 394.2 288.766 370.855 290.587C347.51 292.407 322.513 304.841 301.44 317.237Z" fill="url(#paint5_linear_31_26)"/>
<path d="M530.463 345.785H256.196L256.197 345.784H530.462C530.462 345.684 530.462 345.584 530.463 345.482V345.785ZM431.108 207.176C451.492 227.773 478.008 237.929 530.463 251.72V292.919C530.462 292.583 530.462 292.405 530.462 292.405C530.431 292.398 520.887 290.131 497.939 283.74C483.991 279.856 463.628 273.09 451.524 266.053C451.563 266.084 451.601 266.117 451.639 266.148C442.882 258.855 421.492 252.459 407.376 249.968C381.858 245.465 380.978 237.078 389.655 229.641C394.555 225.441 412.462 214.411 428.588 206.902L430.143 206.188L431.108 207.176ZM441.275 282.915C441.209 282.936 441.142 282.958 441.074 282.979C441.142 282.958 441.209 282.936 441.275 282.915ZM442.1 282.646C442.027 282.671 441.953 282.695 441.88 282.719C441.953 282.695 442.027 282.671 442.1 282.646ZM442.841 282.396C442.806 282.407 442.771 282.42 442.736 282.432C442.771 282.42 442.806 282.407 442.841 282.396ZM443.611 282.126C443.582 282.136 443.553 282.147 443.524 282.157C443.553 282.147 443.582 282.136 443.611 282.126ZM447.628 280.502C447.584 280.522 447.539 280.542 447.494 280.562C447.539 280.542 447.584 280.522 447.628 280.502ZM448.186 280.239C448.167 280.248 448.149 280.257 448.131 280.266C448.149 280.257 448.167 280.248 448.186 280.239ZM449.32 279.667C449.292 279.682 449.265 279.697 449.236 279.712C449.265 279.697 449.292 279.682 449.32 279.667ZM449.845 279.382C449.815 279.399 449.785 279.416 449.755 279.433C449.785 279.416 449.815 279.399 449.845 279.382ZM452.411 277.707C452.374 277.736 452.336 277.765 452.298 277.794C452.336 277.765 452.374 277.736 452.411 277.707ZM452.756 277.428C452.731 277.448 452.707 277.469 452.682 277.489C452.707 277.469 452.731 277.448 452.756 277.428ZM453.116 277.117C453.08 277.15 453.042 277.183 453.005 277.216C453.042 277.183 453.08 277.15 453.116 277.117ZM453.402 276.852C453.383 276.87 453.364 276.889 453.345 276.907C453.364 276.889 453.383 276.87 453.402 276.852ZM453.687 276.57C453.673 276.585 453.659 276.599 453.646 276.613C453.659 276.599 453.673 276.585 453.687 276.57ZM454.803 275.146C454.779 275.185 454.753 275.223 454.729 275.263C454.753 275.223 454.779 275.185 454.803 275.146ZM454.968 274.854C454.948 274.89 454.928 274.927 454.907 274.964C454.928 274.927 454.948 274.89 454.968 274.854ZM455.116 274.556C455.101 274.588 455.085 274.621 455.069 274.653C455.085 274.621 455.101 274.588 455.116 274.556ZM455.246 274.253C455.231 274.291 455.216 274.328 455.2 274.366C455.216 274.328 455.231 274.291 455.246 274.253ZM455.346 273.975C455.337 274 455.329 274.026 455.32 274.052C455.329 274.026 455.337 274 455.346 273.975ZM455.433 273.675C455.426 273.701 455.42 273.727 455.413 273.753C455.42 273.727 455.426 273.701 455.433 273.675ZM455.502 273.366C455.496 273.398 455.491 273.429 455.484 273.461C455.491 273.429 455.496 273.398 455.502 273.366ZM455.585 272.564C455.584 272.623 455.581 272.682 455.578 272.741C455.581 272.682 455.584 272.623 455.585 272.564ZM455.58 272.262C455.583 272.318 455.583 272.374 455.584 272.43C455.583 272.374 455.583 272.318 455.58 272.262ZM455.556 271.967C455.561 272.014 455.565 272.061 455.568 272.107C455.565 272.061 455.561 272.014 455.556 271.967ZM455.515 271.677C455.521 271.713 455.526 271.748 455.531 271.784C455.526 271.748 455.521 271.713 455.515 271.677ZM455.451 271.363C455.461 271.403 455.469 271.443 455.478 271.483C455.469 271.443 455.461 271.403 455.451 271.363ZM455.358 271.021C455.377 271.08 455.394 271.14 455.41 271.199C455.394 271.14 455.377 271.08 455.358 271.021ZM455.251 270.702C455.276 270.771 455.301 270.839 455.323 270.907C455.301 270.839 455.276 270.771 455.251 270.702ZM455.101 270.328C455.14 270.418 455.178 270.507 455.213 270.597C455.178 270.507 455.14 270.418 455.101 270.328ZM454.783 269.693C454.807 269.736 454.829 269.779 454.852 269.821C454.829 269.779 454.807 269.736 454.783 269.693ZM454.613 269.406C454.638 269.446 454.662 269.486 454.686 269.526C454.662 269.486 454.638 269.446 454.613 269.406ZM454.413 269.097C454.442 269.139 454.47 269.182 454.498 269.225C454.47 269.182 454.442 269.139 454.413 269.097ZM454.207 268.803C454.239 268.847 454.271 268.891 454.302 268.936C454.271 268.891 454.239 268.847 454.207 268.803ZM453.978 268.501C454.009 268.542 454.041 268.582 454.072 268.622C454.041 268.582 454.009 268.541 453.978 268.501ZM453.697 268.157C453.751 268.221 453.805 268.285 453.857 268.349C453.805 268.285 453.751 268.221 453.697 268.157ZM453.404 267.822C453.474 267.899 453.542 267.975 453.608 268.052C453.542 267.975 453.474 267.899 453.404 267.822ZM452.754 267.148C452.96 267.35 453.157 267.552 453.343 267.754C453.157 267.552 452.961 267.35 452.754 267.148ZM452.443 266.854C452.522 266.927 452.599 267 452.675 267.073C452.599 267 452.522 266.927 452.443 266.854ZM452.123 266.564C452.178 266.613 452.233 266.663 452.287 266.712C452.233 266.663 452.178 266.613 452.123 266.564ZM451.769 266.258C451.838 266.317 451.907 266.376 451.976 266.436C451.907 266.376 451.838 266.317 451.769 266.258Z" fill="url(#paint6_linear_31_26)"/>
</g>
<path d="M370.761 -111.999L370.803 100.447L452.22 -95.8117L370.88 100.479L552.979 -77.8321L370.938 100.537L567.419 19.2758L370.971 100.615L611.225 100.656L370.971 100.697L567.419 182.036L370.938 100.774L561.461 287.617L370.88 100.832L452.22 297.123L370.803 100.865L370.761 313.31L370.72 100.865L289.302 297.123L370.643 100.832L183.619 287.617L370.585 100.774L109.62 209.38L370.552 100.697L169.391 100.656L370.552 100.615L89.5 -26.7185L370.585 100.537L169.391 -100.519L370.643 100.479L289.302 -95.8117L370.72 100.447L370.761 -111.999Z" stroke="#E0FBEE" stroke-width="0.400687" stroke-linecap="round" stroke-linejoin="round" stroke-dasharray="0.4 8.41"/>
<mask id="mask1_31_26" style="mask-type:alpha" maskUnits="userSpaceOnUse" x="336" y="57" width="106" height="75">
<path d="M384.937 57.0716C383.845 57.2058 382.807 57.4117 381.858 57.6981C381.071 57.9308 380.847 57.9576 379.755 57.9576C376.569 57.9576 373.669 58.611 370.867 59.9625C370.411 60.1773 369.838 60.3921 369.587 60.4279C368.952 60.5085 367.654 60.9381 366.571 61.4124C365.184 62.021 365.094 62.0479 364.164 62.1553C361.783 62.4238 359.205 63.4441 357.147 64.9388C356.887 65.1357 356.305 65.4042 355.759 65.5922C353.62 66.3172 351.929 67.1674 350.837 68.0625C350.613 68.2504 350.013 68.6711 349.494 69.0022C348.196 69.8435 347.069 70.7744 346.013 71.8842C344.992 72.9493 344.321 73.9069 343.721 75.151L343.31 76.0103L342.576 76.3772C342.173 76.5831 341.636 76.9232 341.385 77.1469C340.481 77.9435 339.864 79.2055 339.765 80.4585L339.712 81.094L339.076 81.7652C338.324 82.5529 337.868 83.2241 337.438 84.155C337.143 84.7994 336.695 86.3299 336.695 86.7147C336.695 86.8132 336.57 87.2607 336.409 87.7082C336.158 88.4242 336.123 88.6659 336.087 89.6862C336.06 90.5544 336.087 91.0556 336.203 91.6552C336.391 92.6308 336.4 92.9172 336.248 93.6422C336.14 94.1255 336.149 94.2419 336.266 94.5551C336.391 94.8773 336.4 94.9579 336.275 95.3785C336.078 96.0498 336.158 97.2044 336.454 98.0457C336.588 98.4127 336.758 98.7796 336.83 98.8602C336.901 98.9407 337.026 99.2092 337.116 99.4509C337.197 99.6925 337.331 99.9879 337.411 100.113C337.501 100.239 337.599 100.614 337.635 100.963C337.922 103.756 338.62 105.788 340.052 107.954C341.161 109.627 342.262 110.657 343.345 111.041C343.542 111.113 343.73 111.247 343.784 111.346C343.954 111.677 344.786 112.473 345.288 112.778C346.997 113.816 349.986 114.255 354.121 114.076C355.947 113.995 359.599 113.655 360.906 113.449C361.792 113.306 361.792 113.306 362.257 113.959C362.49 114.299 362.982 114.926 363.349 115.364C363.716 115.794 364.155 116.403 364.325 116.698C364.853 117.629 365.372 118.291 366.195 119.088C367.099 119.947 367.958 120.547 369.14 121.119C369.578 121.343 370.232 121.737 370.572 122.005C371.261 122.542 372.335 123.106 373.168 123.357C373.588 123.482 373.991 123.518 375.047 123.509C376.264 123.5 376.488 123.473 377.446 123.223C378.027 123.062 378.591 122.892 378.699 122.838C378.797 122.775 379.468 122.677 380.184 122.614C384.221 122.238 386.727 120.994 387.765 118.846C388.088 118.184 388.141 118.121 388.428 118.067C388.598 118.032 389.054 117.906 389.43 117.781C389.815 117.656 390.164 117.575 390.2 117.602C390.245 117.629 390.307 117.781 390.343 117.933C390.441 118.416 391.345 120.18 391.838 120.815C392.464 121.647 393.207 122.22 394.442 122.838C396.975 124.109 398.327 125.407 402.068 130.168C403.375 131.833 403.16 131.752 404.386 131.072C404.816 130.83 405.2 130.633 405.236 130.633C405.326 130.633 407.107 129.452 407.42 129.184L407.662 128.978L406.767 127.904C405.979 126.955 405.728 126.588 405.961 126.731C406.167 126.865 408.476 127.42 409.371 127.555C410.624 127.752 412.772 127.769 413.891 127.599C415.618 127.34 417.561 126.624 418.984 125.729C419.279 125.532 420.335 124.968 421.329 124.476C423.647 123.303 424.488 122.739 424.819 122.113C424.891 121.97 425.222 121.728 425.687 121.468C427.334 120.573 428.972 119.347 430.368 117.969C431.084 117.262 431.55 116.429 431.8 115.373C432.006 114.505 431.988 112.312 431.765 111.032C431.666 110.513 431.612 110.066 431.63 110.021C431.648 109.985 431.765 109.958 431.89 109.958C432.257 109.958 433.984 109.547 434.611 109.305C436.123 108.732 437.054 108.151 438.11 107.094C439.247 105.976 439.999 104.732 440.572 103.049C440.733 102.566 440.912 101.948 440.965 101.662C441.028 101.375 441.216 100.91 441.395 100.623C441.565 100.346 441.762 99.8984 441.825 99.6478C442.039 98.8244 441.968 97.4908 441.628 96.1125C441.502 95.6023 441.502 95.5396 441.646 95.2622C441.735 95.0921 441.816 94.6894 441.843 94.2956C441.905 93.1768 441.485 92.3355 440.088 90.7871L439.39 89.9995L439.184 89.1044C438.835 87.556 438.182 86.3567 437.045 85.1842L436.428 84.5577L436.374 83.8327C436.293 82.8303 435.962 82.1322 435.228 81.4609C434.933 81.1835 434.477 80.8344 434.226 80.6912C433.805 80.4496 433.752 80.378 433.358 79.5098C433.134 78.9996 432.758 78.3015 432.534 77.9435C432.051 77.2096 431.013 76.0819 430.261 75.4911C429.984 75.2763 429.679 75.0347 429.59 74.9631C429.482 74.8736 429.393 74.623 429.33 74.2023C429.062 72.3944 427.594 70.8191 424.989 69.5213C424.497 69.2797 423.996 69.047 423.871 69.0112C423.754 68.9754 423.029 68.3041 422.259 67.5344C419.852 65.082 417.435 63.3815 414.356 61.9763C413.9 61.7704 413.408 61.5019 413.256 61.3945C412.781 61.0276 411.662 60.5622 411.018 60.4637C410.678 60.41 410.051 60.3742 409.622 60.3832L408.843 60.41L408.369 59.9625C407.402 59.0496 405.997 58.4231 404.457 58.2172C403.598 58.1009 401.182 58.1545 400.224 58.3157C399.66 58.4141 399.606 58.4052 399.168 58.1814C398.55 57.8681 397.691 57.6981 396.751 57.6891C396.331 57.6802 395.668 57.6444 395.275 57.5996C394.881 57.5549 393.493 57.4743 392.187 57.4206C390.88 57.3669 389.341 57.2685 388.759 57.1879C387.398 57.0179 385.787 56.9642 384.937 57.0716Z" fill="#282AE6"/>
</mask>
<g mask="url(#mask1_31_26)">
<mask id="mask2_31_26" style="mask-type:luminance" maskUnits="userSpaceOnUse" x="331" y="33" width="122" height="123">
<path d="M452.925 33.3936H331.166V155.153H452.925V33.3936Z" fill="white"/>
</mask>
<g mask="url(#mask2_31_26)">
<g filter="url(#filter1_f_31_26)">
<path d="M411.954 58.5703H353.868V102.223H411.954V58.5703Z" fill="#2F95FC"/>
<path d="M429.983 69.002H373.315V126.936H429.983V69.002Z" fill="#FBC16B"/>
<path d="M407.396 42.9219H359.388V98.7794H407.396V42.9219Z" fill="#F9F5FF"/>
<path d="M407.599 66.7119H369.01V106.173H407.599V66.7119Z" fill="#8E47FF"/>
</g>
</g>
</g>
<defs>
<filter id="filter0_f_31_26" x="42.1733" y="-92.7847" width="611.174" height="498.311" filterUnits="userSpaceOnUse" color-interpolation-filters="sRGB">
<feFlood flood-opacity="0" result="BackgroundImageFix"/>
<feBlend mode="normal" in="SourceGraphic" in2="BackgroundImageFix" result="shape"/>
<feGaussianBlur stdDeviation="45.9656" result="effect1_foregroundBlur_31_26"/>
</filter>
<filter id="filter1_f_31_26" x="294.984" y="-15.9624" width="193.884" height="201.782" filterUnits="userSpaceOnUse" color-interpolation-filters="sRGB">
<feFlood flood-opacity="0" result="BackgroundImageFix"/>
<feBlend mode="normal" in="SourceGraphic" in2="BackgroundImageFix" result="shape"/>
<feGaussianBlur stdDeviation="29.4421" result="effect1_foregroundBlur_31_26"/>
</filter>
<linearGradient id="paint0_linear_31_26" x1="530.465" y1="295.69" x2="288.22" y2="309.18" gradientUnits="userSpaceOnUse">
<stop offset="0.0391621" stop-color="#BAB5FE"/>
<stop offset="0.48" stop-color="#FF9AB5"/>
<stop offset="0.94" stop-color="#F3B35A" stop-opacity="0"/>
</linearGradient>
<linearGradient id="paint1_linear_31_26" x1="505.695" y1="205.187" x2="459.663" y2="225.701" gradientUnits="userSpaceOnUse">
<stop stop-color="#AFAAF1"/>
<stop offset="1" stop-color="#B2D8FE"/>
</linearGradient>
<linearGradient id="paint2_linear_31_26" x1="501.158" y1="206.188" x2="527.913" y2="251.72" gradientUnits="userSpaceOnUse">
<stop stop-color="#282AE6"/>
<stop offset="1" stop-color="#AFAAF1"/>
</linearGradient>
<linearGradient id="paint3_linear_31_26" x1="370.857" y1="250.92" x2="168.603" y2="329.426" gradientUnits="userSpaceOnUse">
<stop stop-color="#282AE6"/>
<stop offset="1" stop-color="#FF9AB5" stop-opacity="0"/>
</linearGradient>
<linearGradient id="paint4_linear_31_26" x1="530.464" y1="295.689" x2="288.219" y2="309.179" gradientUnits="userSpaceOnUse">
<stop offset="0.0391621" stop-color="#BAB5FE"/>
<stop offset="0.48" stop-color="#FF9AB5"/>
<stop offset="0.94" stop-color="#F3B35A" stop-opacity="0"/>
</linearGradient>
<linearGradient id="paint5_linear_31_26" x1="293.796" y1="345.786" x2="468.071" y2="281.751" gradientUnits="userSpaceOnUse">
<stop stop-color="#FFDAC3"/>
<stop offset="0.6" stop-color="#BAB5FE"/>
<stop offset="0.98" stop-color="#B2D8FE"/>
</linearGradient>
<linearGradient id="paint6_linear_31_26" x1="530.463" y1="295.689" x2="288.218" y2="309.179" gradientUnits="userSpaceOnUse">
<stop offset="0.0391621" stop-color="#BAB5FE"/>
<stop offset="0.48" stop-color="#FF9AB5"/>
<stop offset="0.94" stop-color="#F3B35A" stop-opacity="0"/>
</linearGradient>
</defs>
</svg>
