<svg width="92" height="92" viewBox="0 0 92 92" fill="none" xmlns="http://www.w3.org/2000/svg">
<rect x="38.7369" y="26.4218" width="14.6836" height="24.2105" transform="rotate(90 38.7369 26.4218)" fill="#6B6BEE"/>
<rect x="14.5264" y="65.5779" width="14.5263" height="24.4726" transform="rotate(-180 14.5264 65.5779)" fill="#6B6BEE"/>
<rect x="77.4738" y="26.4218" width="14.6836" height="24.2105" transform="rotate(90 77.4738 26.4218)" fill="#6B6BEE"/>
<rect x="53.2633" y="65.5779" width="14.5263" height="24.4726" transform="rotate(-180 53.2633 65.5779)" fill="#6B6BEE"/>
<path d="M92.0002 50.8944L77.4738 65.5779L77.4738 41.1053L92.0002 41.1053L92.0002 50.8944Z" fill="#6B6BEE"/>
<path d="M53.2633 26.4218L53.2633 41.1054L38.737 41.1054L53.2633 26.4218Z" fill="#6B6BEE"/>
<path d="M92.0002 26.4218L92.0002 41.1054L77.4738 41.1054L92.0002 26.4218Z" fill="#6B6BEE"/>
<path opacity="0.5" d="M14.5264 41.1053L14.5264 26.4218C6.50371 26.4218 4.57764e-05 32.9959 4.57764e-05 41.1054L14.5264 41.1053Z" fill="#6B6BEE"/>
</svg>
