<svg width="81" height="81" viewBox="0 0 81 81" fill="none" xmlns="http://www.w3.org/2000/svg">
<rect width="80.4512" height="80.4512" rx="11.5087" fill="white"/>
<rect x="36.1758" y="29.2397" width="8.2374" height="13.4985" transform="rotate(90 36.1758 29.2397)" fill="#282AE6"/>
<rect x="22.6772" y="51.2056" width="8.0991" height="13.729" transform="rotate(-180 22.6772 51.2056)" fill="#282AE6"/>
<rect x="57.7734" y="29.2397" width="8.2374" height="13.4985" transform="rotate(90 57.7734 29.2397)" fill="#282AE6"/>
<rect x="44.2749" y="51.2056" width="8.0991" height="13.729" transform="rotate(-180 44.2749 51.2056)" fill="#282AE6"/>
<path d="M65.8726 42.9682L57.7735 51.2056L57.7735 37.4766L65.8726 37.4766L65.8726 42.9682Z" fill="#282AE6"/>
<path d="M44.2749 29.2397L44.2749 37.4771L36.1758 37.4771L44.2749 29.2397Z" fill="#282AE6"/>
<path d="M65.8726 29.2397L65.8726 37.4771L57.7735 37.4771L65.8726 29.2397Z" fill="#282AE6"/>
<path opacity="0.5" d="M22.6772 37.4771L22.6772 29.2397C18.2042 29.2397 14.5781 32.9278 14.5781 37.4771L22.6772 37.4771Z" fill="#282AE6"/>
</svg>
